<?xml version="1.0" standalone="no"?>
<!DOCTYPE svg PUBLIC "-//W3C//DTD SVG 20010904//EN"
 "http://www.w3.org/TR/2001/REC-SVG-20010904/DTD/svg10.dtd">
<svg version="1.0" xmlns="http://www.w3.org/2000/svg"
 width="48.000000pt" height="48.000000pt" viewBox="0 0 48.000000 48.000000"
 preserveAspectRatio="xMidYMid meet">

<g transform="translate(0.000000,48.000000) scale(0.100000,-0.100000)"
fill="#000000" stroke="none">
<path d="M160 467 c-19 -6 -58 -34 -85 -62 -80 -80 -96 -170 -47 -266 34 -68
93 -113 167 -130 180 -40 338 150 265 319 -51 119 -178 177 -300 139z m72 -51
c14 -6 15 -12 8 -26 -6 -10 -10 -21 -10 -24 0 -3 41 -6 91 -6 57 0 88 -4 84
-10 -3 -5 -22 -10 -41 -10 l-34 0 0 -116 c0 -88 -3 -115 -12 -112 -9 3 -15 39
-18 114 l-5 109 -42 3 c-34 3 -41 6 -36 19 5 12 2 15 -8 11 -10 -4 -15 4 -16
27 -3 34 2 36 39 21z m18 -151 c0 -8 -7 -15 -15 -15 -12 0 -15 -16 -15 -85 0
-67 -3 -85 -14 -85 -10 0 -16 13 -18 37 -3 35 -6 38 -35 41 -25 3 -33 -1 -33
-13 0 -22 -40 -16 -54 9 -8 14 -8 20 1 23 19 7 17 73 -2 73 -8 0 -15 7 -15 15
0 12 18 15 100 15 82 0 100 -3 100 -15z"/>
<path d="M122 218 c3 -29 6 -33 33 -33 27 0 30 4 33 33 3 31 2 32 -33 32 -35
0 -36 -1 -33 -32z"/>
</g>
</svg>
